<svg height="682.66669pt" viewBox="-21 -21 682.66669 682.66669" width="682.66669pt" xmlns="http://www.w3.org/2000/svg"><path d="m118.25 187.789062h-14.574219c-3.675781 0-6.675781 2.988282-6.675781 6.671876v11.164062h27.925781v-11.164062c0-3.683594-3.003906-6.671876-6.675781-6.671876zm0 0"/><path d="m97 243.125h27.925781v17.835938h-27.925781zm0 0"/><path d="m411.609375 103.148438-74.871094-44.398438-1.015625-.449219c-9.984375-4.4375-21.460937-4.4375-31.445312 0l-1.015625.449219-74.898438 44.414062h-203.339843v238.6875h589.976562v-238.6875zm-249.183594 175.25c0 11.0625-9.003906 20.0625-20.0625 20.0625h-62.789062c-11.0625 0-20.074219-9-20.074219-20.0625v-83.9375c0-24.363282 19.828125-44.171876 44.175781-44.171876h14.574219c24.363281 0 44.175781 19.808594 44.175781 44.171876zm138.550781.039062c0 11.0625-9.003906 20.0625-20.0625 20.0625h-62.789062c-11.0625 0-20.074219-9-20.074219-20.0625v-83.9375c0-24.347656 19.824219-44.171875 44.175781-44.171875h14.574219c24.363281 0 44.175781 19.824219 44.175781 44.171875zm141.097657 1.175781c0 11.058594-8.996094 20.074219-20.0625 20.074219h-62.789063c-11.058594 0-20.074218-9.015625-20.074218-20.074219v-83.941406c0-24.347656 19.828124-44.171875 44.175781-44.171875h14.574219c24.363281 0 44.175781 19.824219 44.175781 44.171875zm138.550781-1.214843c0 11.0625-9 20.0625-20.0625 20.0625h-62.789062c-11.058594 0-20.074219-9-20.074219-20.0625v-83.9375c0-24.363282 19.824219-44.171876 44.175781-44.171876h14.574219c24.363281 0 44.175781 19.808594 44.175781 44.171876zm0 0"/><path d="m235.550781 243.164062h27.925781v17.835938h-27.925781zm0 0"/><path d="m376.648438 244.351562h27.925781v17.835938h-27.925781zm0 0"/><path d="m515.199219 243.125h27.925781v17.835938h-27.925781zm0 0"/><path d="m256.800781 187.828125h-14.574219c-3.675781 0-6.675781 2.996094-6.675781 6.671875v11.164062h27.925781v-11.164062c0-3.675781-2.988281-6.671875-6.675781-6.671875zm0 0"/><path d="m397.898438 189h-14.574219c-3.675781 0-6.675781 3-6.675781 6.671875v11.179687h27.925781v-11.179687c0-3.671875-2.988281-6.671875-6.675781-6.671875zm0 0"/><path d="m536.449219 187.789062h-14.574219c-3.675781 0-6.675781 2.988282-6.675781 6.671876v11.164062h27.925781v-11.164062c0-3.683594-2.988281-6.671876-6.675781-6.671876zm0 0"/><path d="m97.3125 507.171875h86.675781v44.09375h-86.675781zm0 0"/><path d="m177.3125 450.585938h-73.324219c-3.675781 0-6.675781 2.988281-6.675781 6.675781v12.410156h86.675781v-12.410156c0-3.6875-3.003906-6.675781-6.675781-6.675781zm0 0"/><path d="m455.625 507.171875h86.660156v44.09375h-86.660156zm0 0"/><path d="m535.609375 450.585938h-73.308594c-3.6875 0-6.675781 2.988281-6.675781 6.675781v12.410156h86.660156v-12.410156c0-3.6875-2.984375-6.675781-6.675781-6.675781zm0 0"/><path d="m621.25 602.5h-6.25v-223.148438h-589.976562v223.148438h-6.25c-10.359376 0-18.7500005 8.398438-18.7500005 18.75s8.3906245 18.75 18.7500005 18.75h602.476562c10.351562 0 18.75-8.398438 18.75-18.75s-8.398438-18.75-18.75-18.75zm-399.761719-33.796875c0 11.058594-9.003906 20.0625-20.078125 20.0625h-121.523437c-11.074219 0-20.074219-9.003906-20.074219-20.0625v-111.441406c0-24.363281 19.828125-44.175781 44.175781-44.175781h73.324219c24.363281 0 44.175781 19.8125 44.175781 44.175781zm149.785157 33.796875h-37.5v-148.574219c0-3.675781-3.023438-6.675781-6.722657-6.675781h-14.488281c-3.699219 0-6.710938 3-6.710938 6.675781v148.574219h-37.5v-148.574219c0-24.363281 19.835938-44.175781 44.210938-44.175781h14.488281c24.386719 0 44.222657 19.8125 44.222657 44.175781zm208.511718-33.796875c0 11.058594-9 20.0625-20.058594 20.0625h-121.539062c-11.0625 0-20.0625-9.003906-20.0625-20.0625v-111.441406c0-24.363281 19.8125-44.175781 44.175781-44.175781h73.308594c24.367187 0 44.175781 19.8125 44.175781 44.175781zm0 0"/><path d="m18.75 341.851562c-10.351562 0-18.75 8.398438-18.75 18.75 0 10.351563 8.398438 18.75 18.75 18.75h6.273438v-37.5zm0 0"/><path d="m621.25 379.351562c10.351562 0 18.75-8.398437 18.75-18.75 0-10.351562-8.398438-18.75-18.75-18.75h-6.25v37.5zm0 0"/><path d="m303.246094 21.246094 1.011718-.449219c10-4.433594 21.464844-4.433594 31.464844 0l1.011719.449219 74.871094 44.402344 211.449219.011718-14.890626-39.820312c-5.234374-15.480469-19.644531-25.839844-36.015624-25.839844h-504.296876c-16.371093 0-30.78125 10.359375-36.015624 25.839844l-14.898438 39.820312 211.414062.003906zm0 0"/></svg>